<?xml version="1.0" encoding="UTF-8" standalone="no"?>
<!-- Generator: Adobe Illustrator 21.1.0, SVG Export Plug-In . SVG Version: 6.00 Build 0)  -->

<svg
   version="1.1"
   id="Calque_1"
   x="0px"
   y="0px"
   viewBox="0 0 46.700001 46.600001"
   width="150"
   height="149.6788"
   xml:space="preserve"
   sodipodi:docname="xeus_small.svg"
   inkscape:version="1.1 (ce6663b3b7, 2021-05-25)"
   xmlns:inkscape="http://www.inkscape.org/namespaces/inkscape"
   xmlns:sodipodi="http://sodipodi.sourceforge.net/DTD/sodipodi-0.dtd"
   xmlns="http://www.w3.org/2000/svg"
   xmlns:svg="http://www.w3.org/2000/svg"><defs
   id="defs13">
	
	
	
</defs><sodipodi:namedview
   id="namedview11"
   pagecolor="#ffffff"
   bordercolor="#666666"
   borderopacity="1.0"
   inkscape:pageshadow="2"
   inkscape:pageopacity="0.0"
   inkscape:pagecheckerboard="0"
   showgrid="false"
   inkscape:zoom="2.9627597"
   inkscape:cx="225.97176"
   inkscape:cy="75.098903"
   inkscape:window-width="1920"
   inkscape:window-height="1016"
   inkscape:window-x="0"
   inkscape:window-y="27"
   inkscape:window-maximized="1"
   inkscape:current-layer="Calque_1" />
<style
   type="text/css"
   id="style2">
	.st0{fill:#40B3C3;}
	.st1{opacity:0.28;fill:#40B3C3;}
</style>
<path
   id="path4143_3_"
   class="st0"
   d="m 5,0 c 0.1,0 0.3,0.1 0.4,0.1 2.5,0.8 4.5,2 4.6,2.1 1.9,1.3 3.6,3.1 4.8,5.1 0.4,0.6 5.2,7.8 8.6,12.9 -0.8,1.2 -1.5,2.3 -2.1,3.1 0,-0.1 -0.1,-0.1 -0.1,-0.2 C 17.6,17.9 11.4,8.6 11,7.9 10.1,6.6 9,5.4 7.5,4.5 7.5,4.5 6,3.5 4,2.9 3.2,2.6 1.8,2.4 0,2.2 V 44.6 C 1.8,44.4 3.2,44.2 4,43.9 6,43.3 7.5,42.3 7.5,42.3 9,41.3 10.2,40.1 11,38.9 11.4,38.2 17.6,29 21.1,23.7 24,19.1 31.4,8.1 31.9,7.3 c 1.2,-2 2.9,-3.8 4.8,-5.1 0,-0.1 2.1,-1.3 4.6,-2.1 L 41.8,0 Z m 41.7,2.2 c -1.8,0.2 -3.2,0.4 -4,0.7 -2.1,0.6 -3.6,1.6 -3.6,1.6 -1.5,0.9 -2.6,2.1 -3.5,3.4 -0.4,0.7 -6.6,9.9 -10.1,15.2 -2.9,4.4 -10.3,15.5 -10.8,16.2 -1.2,2 -2.9,3.8 -4.8,5.1 0,0.1 -2.1,1.3 -4.6,2.1 l -0.5,0.1 h 36.8 l -0.4,-0.1 c -2.5,-0.8 -4.5,-2 -4.6,-2.1 -1.9,-1.3 -3.6,-3.1 -4.8,-5.1 -0.4,-0.6 -5.2,-7.8 -8.6,-12.9 0.8,-1.2 1.5,-2.3 2.1,-3.1 0,0.1 0.1,0.1 0.1,0.2 3.5,5.3 9.7,14.5 10.1,15.2 0.9,1.3 2,2.5 3.5,3.4 0,0 1.5,1 3.5,1.6 0.8,0.3 2.2,0.5 4,0.7 v 2.1 h 0.1 V 2.2 Z" /><path
   id="path7-3_4_"
   class="st1"
   d="m 25.4,23.3 c -0.6,0.8 -1.3,1.9 -2.1,3.1 3.4,5.1 8.1,12.3 8.6,12.9 1.2,2 2.9,3.8 4.8,5.1 0,0.1 2.1,1.3 4.6,2.1 0.2,0 0.4,0.1 0.5,0.1 h 4.8 V 44.4 C 44.8,44.2 43.4,44 42.6,43.7 40.6,43.1 39.1,42.1 39.1,42.1 37.6,41.2 36.5,40 35.6,38.7 35.2,38 29,28.8 25.5,23.5 v 0 c 0,0 0,-0.1 -0.1,-0.2 M 4.8,0 H 0 v 2.2 c 1.8,0.2 3.2,0.4 4,0.7 2,0.6 3.5,1.6 3.5,1.6 1.5,0.9 2.6,2.1 3.5,3.4 0.4,0.7 6.6,9.9 10.1,15.2 v 0 c 0,0.1 0.1,0.1 0.1,0.2 0.6,-0.8 1.3,-1.9 2.1,-3.1 C 19.9,15.1 15.2,7.9 14.7,7.3 13.5,5.3 11.8,3.5 9.9,2.2 9.9,2.1 7.8,0.9 5.3,0.1 5.2,0.1 5,0 4.8,0" />
</svg>
